<?xml version="1.0" standalone="no"?>
<!DOCTYPE svg PUBLIC "-//W3C//DTD SVG 20010904//EN"
 "http://www.w3.org/TR/2001/REC-SVG-20010904/DTD/svg10.dtd">
<svg version="1.0" xmlns="http://www.w3.org/2000/svg"
 width="1690.000000pt" height="922.000000pt" viewBox="0 0 1690.000000 922.000000"
 preserveAspectRatio="xMidYMid meet">

<g transform="translate(0.000000,922.000000) scale(0.100000,-0.100000)"
fill="#4f46e5" stroke="none">
<path d="M5934 9020 c-337 -20 -588 -83 -840 -210 -363 -183 -665 -485 -844
-845 -109 -221 -171 -435 -200 -700 -23 -204 -29 -819 -29 -2700 -1 -1840 6
-2380 29 -2615 59 -576 343 -1066 810 -1400 321 -228 650 -332 1145 -360 233
-13 4639 -13 4895 0 380 20 589 68 856 195 214 102 386 224 555 395 296 300
474 665 533 1096 34 247 38 535 33 2874 -4 2343 -4 2372 -43 2630 -32 217
-113 471 -201 630 -171 309 -426 572 -723 748 -265 156 -548 237 -915 262
-173 11 -4868 11 -5061 0z m744 -1373 c42 -16 91 -63 108 -104 11 -26 14 -126
14 -483 l0 -450 453 0 c417 0 455 -2 492 -19 143 -64 152 -271 15 -341 -38
-19 -57 -20 -500 -20 l-460 0 0 -445 c0 -378 -2 -451 -15 -482 -33 -79 -97
-117 -186 -111 -74 5 -121 37 -154 102 l-25 50 0 443 0 443 -455 0 c-435 0
-458 1 -495 20 -62 32 -93 81 -98 156 -6 86 25 141 100 178 l52 26 448 0 448
0 0 445 c0 380 2 451 15 483 41 97 145 144 243 109z m4737 -1056 c139 -64 154
-251 27 -332 l-46 -29 -1102 0 c-755 0 -1112 3 -1131 11 -104 39 -148 172 -90
272 20 33 41 52 79 71 l52 26 1085 0 c1034 0 1088 -1 1126 -19z m-1029 -2720
c55 -25 111 -76 137 -125 31 -58 31 -184 0 -241 -83 -155 -293 -194 -416 -77
-85 80 -107 220 -52 321 34 61 82 105 140 125 57 21 142 19 191 -3z m-4493
-97 c18 -9 186 -169 374 -357 l342 -341 341 337 c192 190 358 346 380 357 43
22 103 26 147 9 63 -24 122 -109 123 -177 0 -71 -24 -100 -375 -452 l-345
-345 345 -345 c373 -373 383 -385 373 -475 -14 -124 -151 -202 -262 -150 -18
9 -187 171 -376 360 l-345 345 -345 -344 c-190 -189 -360 -352 -379 -361 -48
-24 -128 -16 -179 18 -76 50 -103 157 -61 243 14 30 126 147 355 373 184 181
334 333 334 337 0 5 -157 166 -349 359 -306 306 -350 355 -356 388 -17 89 22
179 92 216 47 25 123 27 166 5z m5537 -804 c88 -45 124 -162 78 -249 -13 -25
-40 -59 -61 -75 l-39 -31 -1105 -3 c-1065 -2 -1106 -2 -1147 17 -81 35 -129
135 -106 220 13 49 62 109 105 127 24 11 244 13 1133 14 1087 0 1103 0 1142
-20z m-1047 -736 c54 -18 115 -74 142 -129 11 -22 21 -69 23 -106 15 -242
-275 -370 -447 -197 -51 50 -71 102 -71 183 0 193 169 312 353 249z"/>
</g>
</svg>
